<svg id="Layer_2" data-name="Layer 2" xmlns="http://www.w3.org/2000/svg" xmlns:xlink="http://www.w3.org/1999/xlink" viewBox="0 0 147.4472 147.4472">
  <defs>
    <style>
      .cls-1, .cls-2 {
        fill: #fae100;
      }

      .cls-3 {
        clip-path: url(#clippath-1);
      }

      .cls-4 {
        clip-path: url(#clippath-4);
      }

      .cls-5 {
        clip-path: url(#clippath-7);
      }

      .cls-6 {
        clip-path: url(#clippath-10);
      }

      .cls-7 {
        fill: #371d1e;
      }

      .cls-7, .cls-2 {
        stroke-width: 0px;
      }
    </style>
    <clipPath id="clippath-1">
      <path class="cls-2" d="M36.6324,61.1951h5.4508s.0345,14.9727.0049,18.4605c.0075,2.5461,5.6707,2.5808,5.6632.0371l.0247-18.3023s1.8256.0123,5.4235.0148c3.3891,0,3.3916-5.3283.0037-5.332-3.8179,0-16.5781-.105-16.5781-.105-3.1988.0049-3.1888,5.2269.0073,5.2269"/>
    </clipPath>
    <clipPath id="clippath-4">
      <path class="cls-2" d="M62.7215,62.1641l3.0331,9.5035h-6.322l3.2889-9.5035ZM59.3226,57.7121c-1.3411,2.954-6.1861,16.9033-7.7941,20.6037-1.1642,2.6747,3.8512,4.855,5.0144,2.1816l1.0913-3.8142h9.9744s-.3436.1556.9813,3.6522c1.0728,2.828,6.2516.8677,5.1776-1.9627-1.5314-4.0441-6.8288-18.599-7.7954-20.6606-.445-.9542-2.0431-1.6364-3.5892-1.6364-1.2806,0-2.5289.4672-3.0603,1.6364"/>
    </clipPath>
    <clipPath id="clippath-7">
      <path class="cls-2" d="M75.6771,58.5848c.0098,4.7412.0271,20.0202.0271,20.0202,0,0-.4376,3.0368,2.1655,3.0368s8.3823-.0283,10.9445-.0283,2.5473-5.4495-.0136-5.4495c-2.5634,0-7.2379-.0272-7.2379-.0272,0,0,.0223-14.1334.0149-17.5657-.0049-1.6599-1.4757-2.4904-2.9478-2.4904-1.4783,0-2.9553.8354-2.9527,2.5041"/>
    </clipPath>
    <clipPath id="clippath-10">
      <path class="cls-2" d="M92.0586,57.8308c.0569,2.0788-.0667,20.8781-.0654,22.2711.0012,2.1988,5.5977,2.1937,5.5964-.0038-.0011-2.5523,0-7.396,0-7.396l1.644-1.3175,7.1853,9.8049c1.4534,1.9158,6.0242-1.5463,4.5731-3.4619l-7.6316-10.051s5.1794-5.6015,7.2213-7.6309c1.1915-1.1829-2.4967-4.8994-3.6882-3.7129-1.1544,1.1445-9.2679,9.2673-9.2679,9.2673,0,0,.0729-5.1008-.0026-7.9202-.0284-1.0703-1.3422-1.5882-2.6858-1.5882-1.4374,0-2.9082.5933-2.8786,1.7391"/>
    </clipPath>
  </defs>
  <g id="_레이어_1" data-name="레이어 1">
    <g>
      <rect class="cls-2" width="147.4472" height="147.4472"/>
      <path class="cls-7" d="M73.5778,27.0364c-29.2482,0-52.958,18.7423-52.958,41.8662,0,15.0493,10.0448,28.2409,25.1237,35.6204-1.1074,4.1337-4.0119,14.98-4.5917,17.2986-.7193,2.8799,1.0519,2.8428,2.2161,2.0715.9122-.608,14.5105-9.8575,20.3789-13.8484,3.1863.4734,6.4716.7229,9.831.7229,29.248,0,52.9578-18.7417,52.9578-41.865s-23.7098-41.8662-52.9578-41.8662"/>
      <g>
        <g>
          <path class="cls-1" d="M36.6324,61.1951h5.4508s.0345,14.9727.0049,18.4605c.0075,2.5461,5.6707,2.5808,5.6632.0371l.0247-18.3023s1.8256.0123,5.4235.0148c3.3891,0,3.3916-5.3283.0037-5.332-3.8179,0-16.5781-.105-16.5781-.105-3.1988.0049-3.1888,5.2269.0073,5.2269"/>
          <g class="cls-3">
            <rect class="cls-2" x="33.4263" y="55.9682" width="23.1648" height="26.2682"/>
          </g>
        </g>
        <g>
          <path class="cls-1" d="M62.7215,62.1641l3.0331,9.5035h-6.322l3.2889-9.5035ZM59.3226,57.7121c-1.3411,2.954-6.1861,16.9033-7.7941,20.6037-1.1642,2.6747,3.8512,4.855,5.0144,2.1816l1.0913-3.8142h9.9744s-.3436.1556.9813,3.6522c1.0728,2.828,6.2516.8677,5.1776-1.9627-1.5314-4.0441-6.8288-18.599-7.7954-20.6606-.445-.9542-2.0431-1.6364-3.5892-1.6364-1.2806,0-2.5289.4672-3.0603,1.6364"/>
          <g class="cls-4">
            <rect class="cls-2" x="50.3643" y="56.0757" width="24.4772" height="27.0951"/>
          </g>
        </g>
        <g>
          <path class="cls-1" d="M75.6771,58.5848c.0098,4.7412.0271,20.0202.0271,20.0202,0,0-.4376,3.0368,2.1655,3.0368s8.3823-.0283,10.9445-.0283,2.5473-5.4495-.0136-5.4495c-2.5634,0-7.2379-.0272-7.2379-.0272,0,0,.0223-14.1334.0149-17.5657-.0049-1.6599-1.4757-2.4904-2.9478-2.4904-1.4783,0-2.9553.8354-2.9527,2.5041"/>
          <g class="cls-5">
            <rect class="cls-2" x="75.2666" y="56.0807" width="16.1086" height="25.5611"/>
          </g>
        </g>
        <g>
          <path class="cls-1" d="M92.0586,57.8308c.0569,2.0788-.0667,20.8781-.0654,22.2711.0012,2.1988,5.5977,2.1937,5.5964-.0038-.0011-2.5523,0-7.396,0-7.396l1.644-1.3175,7.1853,9.8049c1.4534,1.9158,6.0242-1.5463,4.5731-3.4619l-7.6316-10.051s5.1794-5.6015,7.2213-7.6309c1.1915-1.1829-2.4967-4.8994-3.6882-3.7129-1.1544,1.1445-9.2679,9.2673-9.2679,9.2673,0,0,.0729-5.1008-.0026-7.9202-.0284-1.0703-1.3422-1.5882-2.6858-1.5882-1.4374,0-2.9082.5933-2.8786,1.7391"/>
          <g class="cls-6">
            <rect class="cls-2" x="91.9919" y="55.1463" width="20.4512" height="27.959"/>
          </g>
        </g>
      </g>
    </g>
  </g>
</svg>