
<svg width="48" height="48" viewBox="0 0 48 48" fill="none" xmlns="http://www.w3.org/2000/svg">
<path d="M13.684 14.095V2.64588C13.684 1.18309 12.5011 0 11.0385 0C9.57595 0 8.39303 1.18309 8.39303 2.64588V14.095C8.39303 15.9395 7.85259 17.7425 6.83974 19.2847L0.433843 29.0404C-0.367367 30.2613 -0.0272303 31.9017 1.19348 32.703C2.41419 33.5044 4.05441 33.1642 4.85561 31.9433L11.2615 22.1876C12.8413 19.7836 13.6803 16.9714 13.6803 14.095H13.684Z" fill="#20262B"/>
<path d="M45.3507 11.8233C43.8881 11.8233 42.7052 13.0064 42.7052 14.4692V26.1262H24.8745C24.455 24.9544 23.8919 23.8318 23.17 22.7999L20.2864 18.6799C20.585 17.2473 20.74 15.7808 20.74 14.3066V2.64588C20.74 1.18309 19.557 0 18.0945 0C16.6319 0 15.4489 1.18309 15.4489 2.64588V14.3104C15.4489 17.5044 14.5079 20.6227 12.7468 23.2837L6.16323 33.2247C5.35824 34.4418 5.69082 36.086 6.90775 36.8911C8.12468 37.6962 9.76867 37.3636 10.5737 36.1465L17.1572 26.2055C17.4784 25.7217 17.777 25.2266 18.0529 24.7201L18.8352 25.8351C19.8594 27.2979 20.4074 29.0366 20.4074 30.8207V45.3541C20.4074 46.8169 21.5903 48 23.0529 48C24.5155 48 25.6984 46.8169 25.6984 45.3541V31.4179H42.709V37.7945C42.709 40.5084 40.5094 42.7082 37.7959 42.7082H30.4792C29.0166 42.7082 27.8337 43.8913 27.8337 45.3541C27.8337 46.8169 29.0166 48 30.4792 48H37.7959C43.4308 48 48 43.4302 48 37.7945V14.4692C48 13.0064 46.8171 11.8233 45.3545 11.8233H45.3507Z" fill="#20262B"/>
</svg>
